<svg width="416" height="39" viewBox="0 0 416 39" fill="none" xmlns="http://www.w3.org/2000/svg">
<path d="M5.6 10.0829V19.1389H15.776V10.0829H18.592V32.1629H15.776V21.5709H5.6V32.1629H2.784V10.0829H5.6ZM39.999 10.0829V32.1629H37.183V12.3869H26.975V32.1629H24.159V10.0829H39.999ZM53.4693 9.6669C55.6239 9.6669 57.3306 10.0189 58.5893 10.7229C59.8693 11.4269 60.7866 12.6216 61.3413 14.3069C61.8959 15.9709 62.1733 18.2429 62.1733 21.1229C62.1733 24.0029 61.8959 26.2749 61.3413 27.9389C60.7866 29.6029 59.8693 30.7976 58.5893 31.5229C57.3306 32.2269 55.6239 32.5789 53.4693 32.5789C51.3359 32.5789 49.6293 32.2269 48.3493 31.5229C47.0693 30.7976 46.1413 29.6029 45.5653 27.9389C45.0106 26.2749 44.7333 24.0029 44.7333 21.1229C44.7333 18.2429 45.0106 15.9709 45.5653 14.3069C46.1413 12.6216 47.0693 11.4269 48.3493 10.7229C49.6293 10.0189 51.3359 9.6669 53.4693 9.6669ZM53.4693 12.1949C52.0186 12.1949 50.8666 12.4722 50.0133 13.0269C49.1813 13.5816 48.5839 14.5096 48.2213 15.8109C47.8799 17.0909 47.7093 18.8616 47.7093 21.1229C47.7093 23.3629 47.8799 25.1336 48.2213 26.4349C48.5839 27.7362 49.1813 28.6642 50.0133 29.2189C50.8666 29.7736 52.0186 30.0509 53.4693 30.0509C54.9199 30.0509 56.0613 29.7736 56.8933 29.2189C57.7466 28.6642 58.3439 27.7362 58.6853 26.4349C59.0479 25.1336 59.2292 23.3629 59.2292 21.1229C59.2292 18.8616 59.0479 17.0909 58.6853 15.8109C58.3439 14.5096 57.7466 13.5816 56.8933 13.0269C56.0613 12.4722 54.9199 12.1949 53.4693 12.1949ZM89.1053 10.0829V12.5789H81.9693V32.1629H79.1533V12.5789H72.0493V10.0829H89.1053ZM95.4645 16.1949C97.2565 16.1949 98.6858 16.4616 99.7525 16.9949C100.819 17.5282 101.587 18.4029 102.057 19.6189C102.547 20.8136 102.793 22.4029 102.793 24.3869C102.793 26.3709 102.547 27.9709 102.057 29.1869C101.587 30.3816 100.819 31.2456 99.7525 31.7789C98.6858 32.3122 97.2565 32.5789 95.4645 32.5789C93.6725 32.5789 92.2325 32.3122 91.1445 31.7789C90.0778 31.2456 89.2992 30.3816 88.8085 29.1869C88.3392 27.9709 88.1045 26.3709 88.1045 24.3869C88.1045 22.4029 88.3392 20.8136 88.8085 19.6189C89.2992 18.4029 90.0778 17.5282 91.1445 16.9949C92.2325 16.4616 93.6725 16.1949 95.4645 16.1949ZM95.4645 18.4989C94.3338 18.4989 93.4378 18.6802 92.7765 19.0429C92.1152 19.3842 91.6458 19.9816 91.3685 20.8349C91.0912 21.6882 90.9525 22.8722 90.9525 24.3869C90.9525 25.9016 91.0912 27.0856 91.3685 27.9389C91.6458 28.7922 92.1152 29.4002 92.7765 29.7629C93.4378 30.1042 94.3338 30.2749 95.4645 30.2749C96.5952 30.2749 97.4805 30.1042 98.1205 29.7629C98.7818 29.4002 99.2512 28.7922 99.5285 27.9389C99.8058 27.0856 99.9445 25.9016 99.9445 24.3869C99.9445 22.8722 99.8058 21.6882 99.5285 20.8349C99.2512 19.9816 98.7818 19.3842 98.1205 19.0429C97.4805 18.6802 96.5952 18.4989 95.4645 18.4989ZM120.466 16.5789V32.1629H117.778V18.7869H109.778V32.1629H107.122V16.5789H120.466ZM138.424 16.5789V32.1629H135.704V18.7229H132.312C131.651 18.7229 131.171 18.8722 130.872 19.1709C130.595 19.4482 130.403 19.9496 130.296 20.6749C130.125 22.0829 129.933 23.5336 129.72 25.0269C129.507 26.4989 129.197 27.7789 128.792 28.8669C128.003 31.1496 126.371 32.3016 123.896 32.3229L123.608 30.2429C124.483 30.0296 125.101 29.7522 125.464 29.4109C125.848 29.0696 126.147 28.6216 126.36 28.0669C126.637 27.3842 126.861 26.5736 127.032 25.6349C127.203 24.6962 127.341 23.7469 127.448 22.7869C127.576 21.8056 127.672 20.9522 127.736 20.2269C127.885 19.0322 128.269 18.1256 128.888 17.5069C129.528 16.8882 130.499 16.5789 131.8 16.5789H138.424ZM157.193 16.5789V32.1629H154.729V21.8269C154.729 21.4856 154.739 21.1549 154.761 20.8349C154.782 20.4936 154.803 20.1309 154.825 19.7469H154.761C154.633 20.0456 154.462 20.3656 154.249 20.7069C154.057 21.0269 153.865 21.3149 153.673 21.5709L145.737 32.1629H143.497V16.5789H145.961V26.9149C145.961 27.2562 145.95 27.5976 145.929 27.9389C145.929 28.2589 145.907 28.6109 145.865 28.9949H145.929C146.27 28.2909 146.643 27.6936 147.049 27.2029L154.985 16.5789H157.193ZM168.614 16.4189C170.235 16.4189 171.515 16.5362 172.454 16.7709C173.414 17.0056 174.107 17.4216 174.534 18.0189C174.961 18.6162 175.174 19.4696 175.174 20.5789C175.174 21.6882 174.907 22.5309 174.374 23.1069C173.862 23.6616 173.009 23.9922 171.814 24.0989V24.1949C173.265 24.3016 174.278 24.7069 174.854 25.4109C175.43 26.0936 175.718 27.0642 175.718 28.3229C175.718 29.3896 175.505 30.2216 175.078 30.8189C174.673 31.3949 174.011 31.8002 173.094 32.0349C172.198 32.2696 170.993 32.3869 169.478 32.3869C168.39 32.3869 167.441 32.3762 166.63 32.3549C165.819 32.3549 165.073 32.3336 164.39 32.2909C163.729 32.2696 163.025 32.2376 162.278 32.1949V16.6109C162.939 16.5469 163.569 16.5042 164.166 16.4829C164.763 16.4616 165.414 16.4509 166.118 16.4509C166.822 16.4296 167.654 16.4189 168.614 16.4189ZM168.518 18.5629C167.793 18.5629 167.121 18.5629 166.502 18.5629C165.883 18.5416 165.329 18.5416 164.838 18.5629V23.1709H168.934C170.278 23.1709 171.217 23.0109 171.75 22.6909C172.305 22.3709 172.582 21.7416 172.582 20.8029C172.582 19.9069 172.283 19.3096 171.686 19.0109C171.089 18.7122 170.033 18.5629 168.518 18.5629ZM168.934 25.1229H164.838V30.2109C165.414 30.2322 166.054 30.2429 166.758 30.2429C167.483 30.2429 168.262 30.2429 169.094 30.2429C170.545 30.2429 171.558 30.0829 172.134 29.7629C172.71 29.4216 172.998 28.7496 172.998 27.7469C172.998 26.7442 172.699 26.0616 172.102 25.6989C171.505 25.3149 170.449 25.1229 168.934 25.1229ZM182.685 16.5789V22.8509H190.877V16.5789H193.565V32.1629H190.877V24.9309H182.685V32.1629H179.997V16.5789H182.685ZM206.014 16.1949C207.742 16.1949 209.054 16.5576 209.95 17.2829C210.867 17.9869 211.326 19.2882 211.326 21.1869V32.1629H209.182L208.862 29.6029C208.456 30.0082 207.934 30.4349 207.294 30.8829C206.654 31.3096 205.918 31.6829 205.086 32.0029C204.275 32.3016 203.39 32.4509 202.43 32.4509C201.043 32.4509 199.923 32.0776 199.07 31.3309C198.216 30.5842 197.79 29.5069 197.79 28.0989V26.4029C197.79 25.1869 198.163 24.2482 198.91 23.5869C199.678 22.9042 200.744 22.5629 202.11 22.5629H208.606V21.1869C208.584 20.2269 208.36 19.5442 207.934 19.1389C207.507 18.7122 206.675 18.4989 205.438 18.4989C204.606 18.4989 203.571 18.5416 202.334 18.6269C201.118 18.7122 199.912 18.8082 198.718 18.9149L198.462 16.8989C199.55 16.7282 200.787 16.5682 202.174 16.4189C203.56 16.2696 204.84 16.1949 206.014 16.1949ZM202.974 30.1149C203.742 30.1362 204.638 29.9549 205.662 29.5709C206.707 29.1656 207.688 28.5576 208.606 27.7469V24.6109L202.59 24.6429C201.843 24.6642 201.31 24.8669 200.99 25.2509C200.691 25.6136 200.542 26.1256 200.542 26.7869V27.7789C200.542 28.5896 200.734 29.1869 201.118 29.5709C201.523 29.9336 202.142 30.1149 202.974 30.1149ZM221.718 16.4189C222.891 16.4189 223.862 16.4296 224.63 16.4509C225.398 16.4509 226.081 16.4722 226.678 16.5149C227.297 16.5362 227.937 16.5789 228.598 16.6429V32.1629H225.942V26.4029C225.409 26.4029 224.79 26.4029 224.086 26.4029C223.403 26.4029 222.625 26.4029 221.75 26.4029C220.235 26.4029 219.329 26.9362 219.03 28.0029L217.846 32.1629H215.03L216.438 27.4909C216.651 26.8082 217.057 26.3282 217.654 26.0509C218.273 25.7522 218.881 25.5709 219.478 25.5069V25.3789C218.177 25.2082 217.259 24.7496 216.726 24.0029C216.193 23.2562 215.926 22.2642 215.926 21.0269C215.926 20.0456 216.097 19.2136 216.438 18.5309C216.779 17.8482 217.366 17.3256 218.198 16.9629C219.051 16.6002 220.225 16.4189 221.718 16.4189ZM221.878 24.3549H225.942V18.6269C225.387 18.6056 224.758 18.5949 224.054 18.5949C223.35 18.5949 222.593 18.5949 221.782 18.5949C220.481 18.5949 219.617 18.8189 219.19 19.2669C218.785 19.6936 218.582 20.4082 218.582 21.4109C218.582 22.4562 218.795 23.2136 219.222 23.6829C219.67 24.1309 220.555 24.3549 221.878 24.3549ZM248.17 16.1949C249.898 16.1949 251.21 16.5576 252.106 17.2829C253.023 17.9869 253.482 19.2882 253.482 21.1869V32.1629H251.338L251.018 29.6029C250.613 30.0082 250.09 30.4349 249.45 30.8829C248.81 31.3096 248.074 31.6829 247.242 32.0029C246.431 32.3016 245.546 32.4509 244.586 32.4509C243.199 32.4509 242.079 32.0776 241.226 31.3309C240.373 30.5842 239.946 29.5069 239.946 28.0989V26.4029C239.946 25.1869 240.319 24.2482 241.066 23.5869C241.834 22.9042 242.901 22.5629 244.266 22.5629H250.762V21.1869C250.741 20.2269 250.517 19.5442 250.09 19.1389C249.663 18.7122 248.831 18.4989 247.594 18.4989C246.762 18.4989 245.727 18.5416 244.49 18.6269C243.274 18.7122 242.069 18.8082 240.874 18.9149L240.618 16.8989C241.706 16.7282 242.943 16.5682 244.33 16.4189C245.717 16.2696 246.997 16.1949 248.17 16.1949ZM245.13 30.1149C245.898 30.1362 246.794 29.9549 247.818 29.5709C248.863 29.1656 249.845 28.5576 250.762 27.7469V24.6109L244.746 24.6429C243.999 24.6642 243.466 24.8669 243.146 25.2509C242.847 25.6136 242.698 26.1256 242.698 26.7869V27.7789C242.698 28.5896 242.89 29.1869 243.274 29.5709C243.679 29.9336 244.298 30.1149 245.13 30.1149ZM271.778 16.5789V32.1629H269.09V18.7869H261.09V32.1629H258.434V16.5789H271.778ZM290.185 16.5789V32.1629H287.497V18.7869H279.497V32.1629H276.841V16.5789H290.185ZM302.639 16.1949C304.367 16.1949 305.679 16.5576 306.575 17.2829C307.492 17.9869 307.951 19.2882 307.951 21.1869V32.1629H305.807L305.487 29.6029C305.081 30.0082 304.559 30.4349 303.919 30.8829C303.279 31.3096 302.543 31.6829 301.711 32.0029C300.9 32.3016 300.015 32.4509 299.055 32.4509C297.668 32.4509 296.548 32.0776 295.695 31.3309C294.841 30.5842 294.415 29.5069 294.415 28.0989V26.4029C294.415 25.1869 294.788 24.2482 295.535 23.5869C296.303 22.9042 297.369 22.5629 298.735 22.5629H305.231V21.1869C305.209 20.2269 304.985 19.5442 304.559 19.1389C304.132 18.7122 303.3 18.4989 302.063 18.4989C301.231 18.4989 300.196 18.5416 298.959 18.6269C297.743 18.7122 296.537 18.8082 295.343 18.9149L295.087 16.8989C296.175 16.7282 297.412 16.5682 298.799 16.4189C300.185 16.2696 301.465 16.1949 302.639 16.1949ZM299.599 30.1149C300.367 30.1362 301.263 29.9549 302.287 29.5709C303.332 29.1656 304.313 28.5576 305.231 27.7469V24.6109L299.215 24.6429C298.468 24.6642 297.935 24.8669 297.615 25.2509C297.316 25.6136 297.167 26.1256 297.167 26.7869V27.7789C297.167 28.5896 297.359 29.1869 297.743 29.5709C298.148 29.9336 298.767 30.1149 299.599 30.1149ZM315.143 16.5789L315.399 19.0429C316.252 18.1682 317.255 17.4749 318.407 16.9629C319.58 16.4509 320.722 16.1949 321.831 16.1949C323.751 16.1949 325.127 16.8989 325.959 18.3069C326.791 19.6936 327.207 21.7416 327.207 24.4509C327.207 26.4562 326.994 28.0562 326.567 29.2509C326.14 30.4242 325.49 31.2669 324.615 31.7789C323.74 32.2909 322.642 32.5469 321.319 32.5469C320.295 32.5469 319.282 32.4189 318.279 32.1629C317.298 31.8856 316.38 31.4802 315.527 30.9469C315.57 31.4802 315.602 31.9922 315.623 32.4829C315.644 32.9949 315.644 33.5282 315.623 34.0829V38.5949H312.935V16.5789H315.143ZM320.967 18.5629C320.114 18.5629 319.271 18.7656 318.439 19.1709C317.628 19.5549 316.69 20.1522 315.623 20.9629V29.2509C316.604 29.5069 317.468 29.7309 318.215 29.9229C318.983 30.0936 319.783 30.1789 320.615 30.1789C321.532 30.1789 322.258 30.0189 322.791 29.6989C323.346 29.3789 323.751 28.8029 324.007 27.9709C324.263 27.1389 324.391 25.9656 324.391 24.4509C324.391 22.2322 324.124 20.6962 323.591 19.8429C323.079 18.9896 322.204 18.5629 320.967 18.5629ZM338.951 16.1949C340.679 16.1949 341.991 16.5576 342.887 17.2829C343.805 17.9869 344.263 19.2882 344.263 21.1869V32.1629H342.119L341.799 29.6029C341.394 30.0082 340.871 30.4349 340.231 30.8829C339.591 31.3096 338.855 31.6829 338.023 32.0029C337.213 32.3016 336.327 32.4509 335.367 32.4509C333.981 32.4509 332.861 32.0776 332.007 31.3309C331.154 30.5842 330.727 29.5069 330.727 28.0989V26.4029C330.727 25.1869 331.101 24.2482 331.847 23.5869C332.615 22.9042 333.682 22.5629 335.047 22.5629H341.543V21.1869C341.522 20.2269 341.298 19.5442 340.871 19.1389C340.445 18.7122 339.613 18.4989 338.375 18.4989C337.543 18.4989 336.509 18.5416 335.271 18.6269C334.055 18.7122 332.85 18.8082 331.655 18.9149L331.399 16.8989C332.487 16.7282 333.725 16.5682 335.111 16.4189C336.498 16.2696 337.778 16.1949 338.951 16.1949ZM335.911 30.1149C336.679 30.1362 337.575 29.9549 338.599 29.5709C339.645 29.1656 340.626 28.5576 341.543 27.7469V24.6109L335.527 24.6429C334.781 24.6642 334.247 24.8669 333.927 25.2509C333.629 25.6136 333.479 26.1256 333.479 26.7869V27.7789C333.479 28.5896 333.671 29.1869 334.055 29.5709C334.461 29.9336 335.079 30.1149 335.911 30.1149ZM361.536 16.5789V18.8189H355.904V32.1629H353.184V18.8189H347.52V16.5789H361.536ZM365.927 16.5789L370.055 28.1949C370.162 28.5149 370.258 28.8349 370.343 29.1549C370.45 29.4536 370.546 29.7629 370.631 30.0829H371.079C371.186 29.7629 371.292 29.4429 371.399 29.1229C371.506 28.7816 371.612 28.4722 371.719 28.1949L375.815 16.5789H378.727L372.519 33.0269C372.263 33.6882 371.9 34.4669 371.431 35.3629C370.962 36.2589 370.343 36.9949 369.575 37.5709C368.786 38.1682 367.9 38.5202 366.919 38.6269C365.959 38.7549 364.914 38.7442 363.783 38.5949L364.039 36.7069C364.722 36.7282 365.383 36.6962 366.023 36.6109C366.684 36.5469 367.271 36.3442 367.783 36.0029C368.231 35.6829 368.636 35.2349 368.999 34.6589C369.383 34.1042 369.703 33.4962 369.959 32.8349L370.247 32.1629H369.639C369.148 32.1629 368.818 31.9282 368.647 31.4589L363.015 16.5789H365.927ZM384.174 16.5789L384.43 19.0429C385.284 18.1682 386.286 17.4749 387.438 16.9629C388.612 16.4509 389.753 16.1949 390.862 16.1949C392.782 16.1949 394.158 16.8989 394.99 18.3069C395.822 19.6936 396.238 21.7416 396.238 24.4509C396.238 26.4562 396.025 28.0562 395.598 29.2509C395.172 30.4242 394.521 31.2669 393.646 31.7789C392.772 32.2909 391.673 32.5469 390.35 32.5469C389.326 32.5469 388.313 32.4189 387.31 32.1629C386.329 31.8856 385.412 31.4802 384.558 30.9469C384.601 31.4802 384.633 31.9922 384.654 32.4829C384.676 32.9949 384.676 33.5282 384.654 34.0829V38.5949H381.966V16.5789H384.174ZM389.998 18.5629C389.145 18.5629 388.302 18.7656 387.47 19.1709C386.66 19.5549 385.721 20.1522 384.654 20.9629V29.2509C385.636 29.5069 386.5 29.7309 387.246 29.9229C388.014 30.0936 388.814 30.1789 389.646 30.1789C390.564 30.1789 391.289 30.0189 391.822 29.6989C392.377 29.3789 392.782 28.8029 393.038 27.9709C393.294 27.1389 393.422 25.9656 393.422 24.4509C393.422 22.2322 393.156 20.6962 392.622 19.8429C392.11 18.9896 391.236 18.5629 389.998 18.5629ZM407.983 16.1949C409.711 16.1949 411.023 16.5576 411.919 17.2829C412.836 17.9869 413.295 19.2882 413.295 21.1869V32.1629H411.151L410.831 29.6029C410.425 30.0082 409.903 30.4349 409.263 30.8829C408.623 31.3096 407.887 31.6829 407.055 32.0029C406.244 32.3016 405.359 32.4509 404.399 32.4509C403.012 32.4509 401.892 32.0776 401.039 31.3309C400.185 30.5842 399.759 29.5069 399.759 28.0989V26.4029C399.759 25.1869 400.132 24.2482 400.879 23.5869C401.647 22.9042 402.713 22.5629 404.079 22.5629H410.575V21.1869C410.553 20.2269 410.329 19.5442 409.903 19.1389C409.476 18.7122 408.644 18.4989 407.407 18.4989C406.575 18.4989 405.54 18.5416 404.303 18.6269C403.087 18.7122 401.881 18.8082 400.687 18.9149L400.431 16.8989C401.519 16.7282 402.756 16.5682 404.143 16.4189C405.529 16.2696 406.809 16.1949 407.983 16.1949ZM404.943 30.1149C405.711 30.1362 406.607 29.9549 407.631 29.5709C408.676 29.1656 409.657 28.5576 410.575 27.7469V24.6109L404.559 24.6429C403.812 24.6642 403.279 24.8669 402.959 25.2509C402.66 25.6136 402.511 26.1256 402.511 26.7869V27.7789C402.511 28.5896 402.703 29.1869 403.087 29.5709C403.492 29.9336 404.111 30.1149 404.943 30.1149Z" fill="black"/>
</svg>
