<svg width="419" height="37" viewBox="0 0 419 37" fill="none" xmlns="http://www.w3.org/2000/svg">
<path d="M5.25 9.3V17.79H14.79V9.3H17.43V30H14.79V20.07H5.25V30H2.61V9.3H5.25ZM37.4991 9.3V30H34.8591V11.46H25.2891V30H22.6491V9.3H37.4991ZM50.1274 8.91C52.1474 8.91 53.7474 9.24 54.9274 9.9C56.1274 10.56 56.9874 11.68 57.5074 13.26C58.0274 14.82 58.2874 16.95 58.2874 19.65C58.2874 22.35 58.0274 24.48 57.5074 26.04C56.9874 27.6 56.1274 28.72 54.9274 29.4C53.7474 30.06 52.1474 30.39 50.1274 30.39C48.1274 30.39 46.5274 30.06 45.3274 29.4C44.1274 28.72 43.2574 27.6 42.7174 26.04C42.1974 24.48 41.9374 22.35 41.9374 19.65C41.9374 16.95 42.1974 14.82 42.7174 13.26C43.2574 11.68 44.1274 10.56 45.3274 9.9C46.5274 9.24 48.1274 8.91 50.1274 8.91ZM50.1274 11.28C48.7674 11.28 47.6874 11.54 46.8874 12.06C46.1074 12.58 45.5474 13.45 45.2074 14.67C44.8874 15.87 44.7274 17.53 44.7274 19.65C44.7274 21.75 44.8874 23.41 45.2074 24.63C45.5474 25.85 46.1074 26.72 46.8874 27.24C47.6874 27.76 48.7674 28.02 50.1274 28.02C51.4874 28.02 52.5574 27.76 53.3374 27.24C54.1374 26.72 54.6974 25.85 55.0174 24.63C55.3574 23.41 55.5274 21.75 55.5274 19.65C55.5274 17.53 55.3574 15.87 55.0174 14.67C54.6974 13.45 54.1374 12.58 53.3374 12.06C52.5574 11.54 51.4874 11.28 50.1274 11.28ZM78.3762 16.23L79.7262 17.13L75.9462 22.47L79.7562 27.93L78.4062 28.83L73.5762 22.77V22.17L78.3762 16.23ZM72.9462 16.23L74.2962 17.13L70.5162 22.47L74.3262 27.93L72.9762 28.83L68.1462 22.77V22.17L72.9462 16.23ZM98.0967 9.3V11.64H91.4067V30H88.7667V11.64H82.1067V9.3H98.0967ZM104.059 15.03C105.739 15.03 107.079 15.28 108.079 15.78C109.079 16.28 109.799 17.1 110.239 18.24C110.699 19.36 110.929 20.85 110.929 22.71C110.929 24.57 110.699 26.07 110.239 27.21C109.799 28.33 109.079 29.14 108.079 29.64C107.079 30.14 105.739 30.39 104.059 30.39C102.379 30.39 101.029 30.14 100.009 29.64C99.0085 29.14 98.2785 28.33 97.8185 27.21C97.3785 26.07 97.1585 24.57 97.1585 22.71C97.1585 20.85 97.3785 19.36 97.8185 18.24C98.2785 17.1 99.0085 16.28 100.009 15.78C101.029 15.28 102.379 15.03 104.059 15.03ZM104.059 17.19C102.999 17.19 102.159 17.36 101.539 17.7C100.919 18.02 100.479 18.58 100.219 19.38C99.9585 20.18 99.8285 21.29 99.8285 22.71C99.8285 24.13 99.9585 25.24 100.219 26.04C100.479 26.84 100.919 27.41 101.539 27.75C102.159 28.07 102.999 28.23 104.059 28.23C105.119 28.23 105.949 28.07 106.549 27.75C107.169 27.41 107.609 26.84 107.869 26.04C108.129 25.24 108.259 24.13 108.259 22.71C108.259 21.29 108.129 20.18 107.869 19.38C107.609 18.58 107.169 18.02 106.549 17.7C105.949 17.36 105.119 17.19 104.059 17.19ZM127.497 15.39V30H124.977V17.46H117.477V30H114.987V15.39H127.497ZM144.333 15.39V30H141.783V17.4H138.603C137.983 17.4 137.533 17.54 137.253 17.82C136.993 18.08 136.813 18.55 136.713 19.23C136.553 20.55 136.373 21.91 136.173 23.31C135.973 24.69 135.683 25.89 135.303 26.91C134.563 29.05 133.033 30.13 130.713 30.15L130.443 28.2C131.263 28 131.843 27.74 132.183 27.42C132.543 27.1 132.823 26.68 133.023 26.16C133.283 25.52 133.493 24.76 133.653 23.88C133.813 23 133.943 22.11 134.043 21.21C134.163 20.29 134.253 19.49 134.313 18.81C134.453 17.69 134.813 16.84 135.393 16.26C135.993 15.68 136.903 15.39 138.123 15.39H144.333ZM161.929 15.39V30H159.619V20.31C159.619 19.99 159.629 19.68 159.649 19.38C159.669 19.06 159.689 18.72 159.709 18.36H159.649C159.529 18.64 159.369 18.94 159.169 19.26C158.989 19.56 158.809 19.83 158.629 20.07L151.189 30H149.089V15.39H151.399V25.08C151.399 25.4 151.389 25.72 151.369 26.04C151.369 26.34 151.349 26.67 151.309 27.03H151.369C151.689 26.37 152.039 25.81 152.419 25.35L159.859 15.39H161.929ZM172.636 15.24C174.156 15.24 175.356 15.35 176.236 15.57C177.136 15.79 177.786 16.18 178.186 16.74C178.586 17.3 178.786 18.1 178.786 19.14C178.786 20.18 178.536 20.97 178.036 21.51C177.556 22.03 176.756 22.34 175.636 22.44V22.53C176.996 22.63 177.946 23.01 178.486 23.67C179.026 24.31 179.296 25.22 179.296 26.4C179.296 27.4 179.096 28.18 178.696 28.74C178.316 29.28 177.696 29.66 176.836 29.88C175.996 30.1 174.866 30.21 173.446 30.21C172.426 30.21 171.536 30.2 170.776 30.18C170.016 30.18 169.316 30.16 168.676 30.12C168.056 30.1 167.396 30.07 166.696 30.03V15.42C167.316 15.36 167.906 15.32 168.466 15.3C169.026 15.28 169.636 15.27 170.296 15.27C170.956 15.25 171.736 15.24 172.636 15.24ZM172.546 17.25C171.866 17.25 171.236 17.25 170.656 17.25C170.076 17.23 169.556 17.23 169.096 17.25V21.57H172.936C174.196 21.57 175.076 21.42 175.576 21.12C176.096 20.82 176.356 20.23 176.356 19.35C176.356 18.51 176.076 17.95 175.516 17.67C174.956 17.39 173.966 17.25 172.546 17.25ZM172.936 23.4H169.096V28.17C169.636 28.19 170.236 28.2 170.896 28.2C171.576 28.2 172.306 28.2 173.086 28.2C174.446 28.2 175.396 28.05 175.936 27.75C176.476 27.43 176.746 26.8 176.746 25.86C176.746 24.92 176.466 24.28 175.906 23.94C175.346 23.58 174.356 23.4 172.936 23.4ZM185.828 15.39V21.27H193.508V15.39H196.028V30H193.508V23.22H185.828V30H183.308V15.39H185.828ZM207.698 15.03C209.318 15.03 210.548 15.37 211.388 16.05C212.248 16.71 212.678 17.93 212.678 19.71V30H210.668L210.368 27.6C209.988 27.98 209.498 28.38 208.898 28.8C208.298 29.2 207.608 29.55 206.828 29.85C206.068 30.13 205.238 30.27 204.338 30.27C203.038 30.27 201.988 29.92 201.188 29.22C200.388 28.52 199.988 27.51 199.988 26.19V24.6C199.988 23.46 200.338 22.58 201.038 21.96C201.758 21.32 202.758 21 204.038 21H210.128V19.71C210.108 18.81 209.898 18.17 209.498 17.79C209.098 17.39 208.318 17.19 207.158 17.19C206.378 17.19 205.408 17.23 204.248 17.31C203.108 17.39 201.978 17.48 200.858 17.58L200.618 15.69C201.638 15.53 202.798 15.38 204.098 15.24C205.398 15.1 206.598 15.03 207.698 15.03ZM204.848 28.08C205.568 28.1 206.408 27.93 207.368 27.57C208.348 27.19 209.268 26.62 210.128 25.86V22.92L204.488 22.95C203.788 22.97 203.288 23.16 202.988 23.52C202.708 23.86 202.568 24.34 202.568 24.96V25.89C202.568 26.65 202.748 27.21 203.108 27.57C203.488 27.91 204.068 28.08 204.848 28.08ZM222.421 15.24C223.521 15.24 224.431 15.25 225.151 15.27C225.871 15.27 226.511 15.29 227.071 15.33C227.651 15.35 228.251 15.39 228.871 15.45V30H226.381V24.6C225.881 24.6 225.301 24.6 224.641 24.6C224.001 24.6 223.271 24.6 222.451 24.6C221.031 24.6 220.181 25.1 219.901 26.1L218.791 30H216.151L217.471 25.62C217.671 24.98 218.051 24.53 218.611 24.27C219.191 23.99 219.761 23.82 220.321 23.76V23.64C219.101 23.48 218.241 23.05 217.741 22.35C217.241 21.65 216.991 20.72 216.991 19.56C216.991 18.64 217.151 17.86 217.471 17.22C217.791 16.58 218.341 16.09 219.121 15.75C219.921 15.41 221.021 15.24 222.421 15.24ZM222.571 22.68H226.381V17.31C225.861 17.29 225.271 17.28 224.611 17.28C223.951 17.28 223.241 17.28 222.481 17.28C221.261 17.28 220.451 17.49 220.051 17.91C219.671 18.31 219.481 18.98 219.481 19.92C219.481 20.9 219.681 21.61 220.081 22.05C220.501 22.47 221.331 22.68 222.571 22.68ZM247.22 15.03C248.84 15.03 250.07 15.37 250.91 16.05C251.77 16.71 252.2 17.93 252.2 19.71V30H250.19L249.89 27.6C249.51 27.98 249.02 28.38 248.42 28.8C247.82 29.2 247.13 29.55 246.35 29.85C245.59 30.13 244.76 30.27 243.86 30.27C242.56 30.27 241.51 29.92 240.71 29.22C239.91 28.52 239.51 27.51 239.51 26.19V24.6C239.51 23.46 239.86 22.58 240.56 21.96C241.28 21.32 242.28 21 243.56 21H249.65V19.71C249.63 18.81 249.42 18.17 249.02 17.79C248.62 17.39 247.84 17.19 246.68 17.19C245.9 17.19 244.93 17.23 243.77 17.31C242.63 17.39 241.5 17.48 240.38 17.58L240.14 15.69C241.16 15.53 242.32 15.38 243.62 15.24C244.92 15.1 246.12 15.03 247.22 15.03ZM244.37 28.08C245.09 28.1 245.93 27.93 246.89 27.57C247.87 27.19 248.79 26.62 249.65 25.86V22.92L244.01 22.95C243.31 22.97 242.81 23.16 242.51 23.52C242.23 23.86 242.09 24.34 242.09 24.96V25.89C242.09 26.65 242.27 27.21 242.63 27.57C243.01 27.91 243.59 28.08 244.37 28.08ZM269.353 15.39V30H266.833V17.46H259.333V30H256.843V15.39H269.353ZM286.609 15.39V30H284.089V17.46H276.589V30H274.099V15.39H286.609ZM298.284 15.03C299.904 15.03 301.134 15.37 301.974 16.05C302.834 16.71 303.264 17.93 303.264 19.71V30H301.254L300.954 27.6C300.574 27.98 300.084 28.38 299.484 28.8C298.884 29.2 298.194 29.55 297.414 29.85C296.654 30.13 295.824 30.27 294.924 30.27C293.624 30.27 292.574 29.92 291.774 29.22C290.974 28.52 290.574 27.51 290.574 26.19V24.6C290.574 23.46 290.924 22.58 291.624 21.96C292.344 21.32 293.344 21 294.624 21H300.714V19.71C300.694 18.81 300.484 18.17 300.084 17.79C299.684 17.39 298.904 17.19 297.744 17.19C296.964 17.19 295.994 17.23 294.834 17.31C293.694 17.39 292.564 17.48 291.444 17.58L291.204 15.69C292.224 15.53 293.384 15.38 294.684 15.24C295.984 15.1 297.184 15.03 298.284 15.03ZM295.434 28.08C296.154 28.1 296.994 27.93 297.954 27.57C298.934 27.19 299.854 26.62 300.714 25.86V22.92L295.074 22.95C294.374 22.97 293.874 23.16 293.574 23.52C293.294 23.86 293.154 24.34 293.154 24.96V25.89C293.154 26.65 293.334 27.21 293.694 27.57C294.074 27.91 294.654 28.08 295.434 28.08ZM310.007 15.39L310.247 17.7C311.047 16.88 311.987 16.23 313.067 15.75C314.167 15.27 315.237 15.03 316.277 15.03C318.077 15.03 319.367 15.69 320.147 17.01C320.927 18.31 321.317 20.23 321.317 22.77C321.317 24.65 321.117 26.15 320.717 27.27C320.317 28.37 319.707 29.16 318.887 29.64C318.067 30.12 317.037 30.36 315.797 30.36C314.837 30.36 313.887 30.24 312.947 30C312.027 29.74 311.167 29.36 310.367 28.86C310.407 29.36 310.437 29.84 310.457 30.3C310.477 30.78 310.477 31.28 310.457 31.8V36.03H307.937V15.39H310.007ZM315.467 17.25C314.667 17.25 313.877 17.44 313.097 17.82C312.337 18.18 311.457 18.74 310.457 19.5V27.27C311.377 27.51 312.187 27.72 312.887 27.9C313.607 28.06 314.357 28.14 315.137 28.14C315.997 28.14 316.677 27.99 317.177 27.69C317.697 27.39 318.077 26.85 318.317 26.07C318.557 25.29 318.677 24.19 318.677 22.77C318.677 20.69 318.427 19.25 317.927 18.45C317.447 17.65 316.627 17.25 315.467 17.25ZM332.327 15.03C333.947 15.03 335.177 15.37 336.017 16.05C336.877 16.71 337.307 17.93 337.307 19.71V30H335.297L334.997 27.6C334.617 27.98 334.127 28.38 333.527 28.8C332.927 29.2 332.237 29.55 331.457 29.85C330.697 30.13 329.867 30.27 328.967 30.27C327.667 30.27 326.617 29.92 325.817 29.22C325.017 28.52 324.617 27.51 324.617 26.19V24.6C324.617 23.46 324.967 22.58 325.667 21.96C326.387 21.32 327.387 21 328.667 21H334.757V19.71C334.737 18.81 334.527 18.17 334.127 17.79C333.727 17.39 332.947 17.19 331.787 17.19C331.007 17.19 330.037 17.23 328.877 17.31C327.737 17.39 326.607 17.48 325.487 17.58L325.247 15.69C326.267 15.53 327.427 15.38 328.727 15.24C330.027 15.1 331.227 15.03 332.327 15.03ZM329.477 28.08C330.197 28.1 331.037 27.93 331.997 27.57C332.977 27.19 333.897 26.62 334.757 25.86V22.92L329.117 22.95C328.417 22.97 327.917 23.16 327.617 23.52C327.337 23.86 327.197 24.34 327.197 24.96V25.89C327.197 26.65 327.377 27.21 327.737 27.57C328.117 27.91 328.697 28.08 329.477 28.08ZM353.5 15.39V17.49H348.22V30H345.67V17.49H340.36V15.39H353.5ZM357.617 15.39L361.487 26.28C361.587 26.58 361.677 26.88 361.757 27.18C361.857 27.46 361.947 27.75 362.027 28.05H362.447C362.547 27.75 362.647 27.45 362.747 27.15C362.847 26.83 362.947 26.54 363.047 26.28L366.887 15.39H369.617L363.797 30.81C363.557 31.43 363.217 32.16 362.777 33C362.337 33.84 361.757 34.53 361.037 35.07C360.297 35.63 359.467 35.96 358.547 36.06C357.647 36.18 356.667 36.17 355.607 36.03L355.847 34.26C356.487 34.28 357.107 34.25 357.707 34.17C358.327 34.11 358.877 33.92 359.357 33.6C359.777 33.3 360.157 32.88 360.497 32.34C360.857 31.82 361.157 31.25 361.397 30.63L361.667 30H361.097C360.637 30 360.327 29.78 360.167 29.34L354.887 15.39H357.617ZM374.724 15.39L374.964 17.7C375.764 16.88 376.704 16.23 377.784 15.75C378.884 15.27 379.954 15.03 380.994 15.03C382.794 15.03 384.084 15.69 384.864 17.01C385.644 18.31 386.034 20.23 386.034 22.77C386.034 24.65 385.834 26.15 385.434 27.27C385.034 28.37 384.424 29.16 383.604 29.64C382.784 30.12 381.754 30.36 380.514 30.36C379.554 30.36 378.604 30.24 377.664 30C376.744 29.74 375.884 29.36 375.084 28.86C375.124 29.36 375.154 29.84 375.174 30.3C375.194 30.78 375.194 31.28 375.174 31.8V36.03H372.654V15.39H374.724ZM380.184 17.25C379.384 17.25 378.594 17.44 377.814 17.82C377.054 18.18 376.174 18.74 375.174 19.5V27.27C376.094 27.51 376.904 27.72 377.604 27.9C378.324 28.06 379.074 28.14 379.854 28.14C380.714 28.14 381.394 27.99 381.894 27.69C382.414 27.39 382.794 26.85 383.034 26.07C383.274 25.29 383.394 24.19 383.394 22.77C383.394 20.69 383.144 19.25 382.644 18.45C382.164 17.65 381.344 17.25 380.184 17.25ZM397.044 15.03C398.664 15.03 399.894 15.37 400.734 16.05C401.594 16.71 402.024 17.93 402.024 19.71V30H400.014L399.714 27.6C399.334 27.98 398.844 28.38 398.244 28.8C397.644 29.2 396.954 29.55 396.174 29.85C395.414 30.13 394.584 30.27 393.684 30.27C392.384 30.27 391.334 29.92 390.534 29.22C389.734 28.52 389.334 27.51 389.334 26.19V24.6C389.334 23.46 389.684 22.58 390.384 21.96C391.104 21.32 392.104 21 393.384 21H399.474V19.71C399.454 18.81 399.244 18.17 398.844 17.79C398.444 17.39 397.664 17.19 396.504 17.19C395.724 17.19 394.754 17.23 393.594 17.31C392.454 17.39 391.324 17.48 390.204 17.58L389.964 15.69C390.984 15.53 392.144 15.38 393.444 15.24C394.744 15.1 395.944 15.03 397.044 15.03ZM394.194 28.08C394.914 28.1 395.754 27.93 396.714 27.57C397.694 27.19 398.614 26.62 399.474 25.86V22.92L393.834 22.95C393.134 22.97 392.634 23.16 392.334 23.52C392.054 23.86 391.914 24.34 391.914 24.96V25.89C391.914 26.65 392.094 27.21 392.454 27.57C392.834 27.91 393.414 28.08 394.194 28.08ZM407.267 16.23L405.917 17.13L409.697 22.47L405.887 27.93L407.237 28.83L412.067 22.77V22.17L407.267 16.23ZM412.727 16.23L411.377 17.13L415.157 22.47L411.347 27.93L412.697 28.83L417.527 22.77V22.17L412.727 16.23Z" fill="black"/>
</svg>
